# xmcd
#
# Track frame offsets: 
#        150
#        24328
#        58372
#        75524
#        92328
#        111240
#        128768
#        146375
#        166223
#        188593
#        210065
#
# Disc length: 2982 seconds
#
# Revision: 0
# Processed by: cddbd v1.5.2PL0 Copyright (c) Steve Scherf et al.
# Submitted via: ExactAudioCopy v1.3
#
DISCID=7f0ba40b
DTITLE=Mick Pini - Happy With The Blues
DYEAR=2015
DGENRE=Blues Rock
TTITLE0=Blues Is Cheap
TTITLE1=Catfish Mama
TTITLE2=Jumping Blues
TTITLE3=Let Go
TTITLE4=Going Down
TTITLE5=Happy With The Blues
TTITLE6=You Know I Can
TTITLE7=I've Been A Fool
TTITLE8=She Was Born That Way
TTITLE9=Fishes In The Sea
TTITLE10=Just Pushin'
EXTD=
EXTT0=
EXTT1=
EXTT2=
EXTT3=
EXTT4=
EXTT5=
EXTT6=
EXTT7=
EXTT8=
EXTT9=
EXTT10=
PLAYORDER=
